<svg width="300" height="300" viewBox="0 0 300 300" fill="none" xmlns="http://www.w3.org/2000/svg">
<rect width="300" height="300" fill="none"/>
<circle cx="150" cy="150" r="150" fill="0"/>
<path d="M91.5942 228.942C91.5942 227.768 91.4278 226.702 91.0942 225.746C90.7606 224.791 90.272 223.966 89.6284 223.275C88.9849 222.584 88.1971 222.048 87.2666 221.668C86.3354 221.288 85.2721 221.098 84.0768 221.098C82.9268 221.098 81.898 221.323 80.9897 221.772C80.0814 222.221 79.3058 222.837 78.6623 223.621C78.0417 222.814 77.2776 222.192 76.3693 221.755C75.461 221.317 74.4552 221.098 73.3518 221.098C72.3861 221.098 71.518 221.294 70.7482 221.685C69.9776 222.077 69.3168 222.607 68.7651 223.275L68.7637 221.547H64.4246V239.344H68.9703V228.942C68.9703 227.929 69.2874 227.089 69.9224 226.42C70.5566 225.752 71.3817 225.418 72.3968 225.418C73.158 225.418 73.7586 225.551 74.1969 225.815C74.6353 226.08 74.9646 226.403 75.1841 226.783C75.4029 227.163 75.5471 227.555 75.6167 227.958C75.6856 228.361 75.7208 228.689 75.7208 228.942V239.344H80.2665V228.942C80.2665 227.929 80.5836 227.089 81.2185 226.42C81.8528 225.752 82.69 225.418 83.7282 225.418C84.4664 225.418 85.0547 225.551 85.4931 225.815C85.9314 226.08 86.2665 226.403 86.4968 226.783C86.7271 227.163 86.877 227.555 86.9466 227.958C87.0155 228.361 87.0507 228.689 87.0507 228.942V239.344H91.5964V228.942H91.5942ZM99.5493 221.547H95.0035V239.344H99.5493V221.547ZM98.9466 219.405C99.4165 218.944 99.6526 218.391 99.6526 217.746C99.6526 217.078 99.4173 216.508 98.9466 216.035C98.476 215.563 97.9077 215.327 97.242 215.327C96.5991 215.327 96.0481 215.563 95.589 216.035C95.1298 216.508 94.9002 217.078 94.9002 217.746C94.9002 218.391 95.1298 218.944 95.589 219.405C96.0481 219.866 96.5991 220.096 97.242 220.096C97.907 220.097 98.4752 219.866 98.9466 219.405ZM114.873 233.47C114.552 234.069 114.064 234.576 113.41 234.991C112.755 235.405 112.026 235.613 111.223 235.613C110.603 235.613 110.018 235.48 109.467 235.215C108.916 234.95 108.433 234.582 108.02 234.11C107.607 233.637 107.28 233.09 107.039 232.468C106.798 231.846 106.677 231.189 106.677 230.498C106.677 229.784 106.798 229.111 107.039 228.477C107.28 227.843 107.607 227.29 108.02 226.818C108.433 226.346 108.916 225.971 109.467 225.695C110.018 225.418 110.603 225.28 111.223 225.28C112.026 225.28 112.755 225.499 113.41 225.937C114.064 226.374 114.551 226.893 114.873 227.492C115.195 227.423 115.556 227.349 115.958 227.267C116.359 227.187 116.767 227.106 117.18 227.025C117.594 226.945 118.001 226.864 118.403 226.783C118.804 226.703 119.155 226.628 119.453 226.559C118.811 224.831 117.766 223.489 116.32 222.533C114.873 221.578 113.174 221.099 111.223 221.099C109.891 221.099 108.662 221.346 107.538 221.842C106.413 222.338 105.449 223.005 104.645 223.846C103.842 224.688 103.21 225.678 102.751 226.818C102.291 227.958 102.062 229.174 102.062 230.464C102.062 231.755 102.292 232.964 102.751 234.092C103.21 235.221 103.842 236.206 104.645 237.047C105.449 237.888 106.413 238.55 107.538 239.034C108.662 239.518 109.891 239.76 111.223 239.76C113.174 239.76 114.867 239.299 116.302 238.377C117.736 237.457 118.788 236.143 119.453 234.438L114.873 233.47ZM132.126 221.202C131.047 221.017 130.008 221.098 129.01 221.444C128.011 221.789 127.144 222.411 126.41 223.31V221.547H122.071V239.344H126.616V230.601C126.616 229.887 126.685 229.19 126.823 228.511C126.961 227.832 127.271 227.238 127.753 226.731C128.281 226.178 128.912 225.827 129.647 225.677C130.381 225.527 131.208 225.51 132.126 225.625V221.202ZM138.314 221.807C137.237 222.279 136.298 222.936 135.495 223.777C134.693 224.618 134.058 225.608 133.588 226.749C133.118 227.889 132.883 229.128 132.883 230.464C132.883 231.8 133.118 233.033 133.588 234.161C134.058 235.29 134.693 236.269 135.495 237.099C136.297 237.928 137.237 238.58 138.314 239.051C139.391 239.523 140.548 239.76 141.786 239.76C143.023 239.76 144.18 239.523 145.257 239.051C146.334 238.58 147.279 237.928 148.093 237.099C148.907 236.269 149.548 235.29 150.018 234.161C150.488 233.033 150.722 231.8 150.722 230.464C150.722 229.128 150.487 227.889 150.018 226.749C149.548 225.608 148.907 224.619 148.093 223.777C147.279 222.936 146.335 222.279 145.257 221.807C144.179 221.336 143.023 221.099 141.786 221.099C140.548 221.098 139.391 221.335 138.314 221.807ZM140.099 235.215C139.559 234.973 139.094 234.628 138.704 234.179C138.314 233.729 138.003 233.194 137.774 232.572C137.544 231.95 137.43 231.259 137.43 230.498C137.43 229.738 137.544 229.035 137.774 228.39C138.003 227.746 138.314 227.192 138.704 226.732C139.094 226.271 139.559 225.914 140.099 225.66C140.638 225.407 141.206 225.28 141.803 225.28C142.4 225.28 142.962 225.407 143.491 225.66C144.019 225.914 144.484 226.271 144.885 226.732C145.286 227.193 145.603 227.746 145.832 228.39C146.062 229.035 146.177 229.738 146.177 230.498C146.177 231.259 146.062 231.95 145.832 232.572C145.603 233.194 145.287 233.729 144.885 234.179C144.484 234.628 144.019 234.973 143.491 235.215C142.963 235.457 142.4 235.578 141.803 235.578C141.206 235.578 140.637 235.457 140.099 235.215ZM169.421 221.547H164.738L160.295 234.817L155.887 221.547H151.135L157.85 239.344H162.74L169.421 221.547ZM182.37 234.057C181.979 234.657 181.469 235.089 180.837 235.353C180.206 235.618 179.546 235.75 178.857 235.75C177.778 235.75 176.842 235.439 176.05 234.817C175.258 234.195 174.712 233.331 174.415 232.225H187.811C187.971 230.475 187.845 228.908 187.432 227.526C187.019 226.143 186.399 224.974 185.572 224.018C184.746 223.063 183.753 222.337 182.594 221.841C181.434 221.346 180.2 221.098 178.892 221.098C177.652 221.098 176.481 221.346 175.379 221.841C174.277 222.337 173.313 223.004 172.486 223.845C171.66 224.687 171.005 225.677 170.523 226.817C170.041 227.958 169.8 229.173 169.8 230.463C169.8 231.754 170.041 232.963 170.523 234.092C171.005 235.22 171.66 236.205 172.486 237.046C173.313 237.888 174.277 238.549 175.379 239.033C176.481 239.517 177.652 239.759 178.892 239.759C180.476 239.759 181.876 239.47 183.093 238.895C184.31 238.319 185.308 237.513 186.089 236.476L186.261 236.234L182.37 234.057ZM174.484 228.494C174.805 227.457 175.356 226.634 176.137 226.023C176.917 225.413 177.824 225.107 178.857 225.107C179.959 225.107 180.906 225.413 181.698 226.023C182.49 226.634 183.024 227.457 183.299 228.494H174.484ZM200.345 221.202C199.266 221.017 198.227 221.098 197.229 221.444C196.23 221.789 195.363 222.411 194.629 223.31V221.547H190.29V239.344H194.835V230.601C194.835 229.887 194.904 229.19 195.042 228.511C195.18 227.832 195.49 227.238 195.972 226.731C196.5 226.178 197.131 225.827 197.866 225.677C198.6 225.527 199.427 225.51 200.345 225.625V221.202ZM216.515 231.344C216.137 230.711 215.617 230.192 214.953 229.789C214.29 229.386 213.494 229.063 212.568 228.822C211.641 228.58 210.628 228.367 209.529 228.182C208.431 227.998 207.571 227.802 206.954 227.595C206.336 227.387 206.027 227.054 206.027 226.593C206.027 226.27 206.256 225.953 206.715 225.642C207.175 225.331 207.932 225.176 208.988 225.176C209.792 225.176 210.44 225.314 210.934 225.59C211.428 225.867 211.755 226.201 211.915 226.593L216.461 225.832C216.002 224.381 215.107 223.229 213.775 222.377C212.444 221.525 210.848 221.098 208.988 221.098C207.702 221.098 206.583 221.266 205.631 221.599C204.678 221.933 203.892 222.365 203.272 222.895C202.652 223.426 202.187 224.035 201.877 224.727C201.567 225.418 201.412 226.109 201.412 226.8C201.412 227.791 201.647 228.603 202.118 229.236C202.589 229.871 203.191 230.382 203.926 230.774C204.661 231.166 205.458 231.459 206.319 231.655C207.18 231.851 208.013 232.007 208.816 232.122C209.597 232.237 210.228 232.358 210.71 232.485C211.192 232.611 211.571 232.744 211.847 232.882C212.122 233.02 212.306 233.181 212.398 233.366C212.489 233.55 212.535 233.769 212.535 234.022C212.535 234.552 212.23 234.95 211.623 235.215C211.014 235.48 210.251 235.612 209.333 235.612C209.011 235.612 208.661 235.577 208.282 235.508C207.904 235.439 207.542 235.33 207.198 235.18C206.853 235.03 206.538 234.829 206.251 234.575C205.964 234.322 205.74 234.011 205.579 233.642L201.102 234.437C201.331 235.266 201.693 236.009 202.187 236.666C202.681 237.323 203.283 237.881 203.995 238.342C204.707 238.804 205.515 239.154 206.423 239.396C207.33 239.638 208.3 239.759 209.333 239.759C210.457 239.759 211.495 239.608 212.444 239.31C213.393 239.011 214.21 238.595 214.894 238.066C215.577 237.536 216.113 236.902 216.501 236.165C216.888 235.428 217.082 234.622 217.082 233.746C217.082 232.778 216.892 231.978 216.515 231.344ZM231.098 234.057C230.708 234.657 230.197 235.089 229.565 235.353C228.933 235.618 228.274 235.75 227.585 235.75C226.506 235.75 225.571 235.439 224.779 234.817C223.987 234.195 223.441 233.331 223.143 232.225H236.539C236.7 230.475 236.573 228.908 236.16 227.526C235.747 226.143 235.127 224.974 234.301 224.018C233.474 223.063 232.48 222.337 231.322 221.841C230.162 221.346 228.928 221.098 227.62 221.098C226.38 221.098 225.209 221.346 224.107 221.841C223.005 222.337 222.041 223.004 221.214 223.845C220.388 224.687 219.733 225.677 219.251 226.817C218.769 227.958 218.528 229.173 218.528 230.463C218.528 231.754 218.769 232.963 219.251 234.092C219.733 235.22 220.388 236.205 221.214 237.046C222.041 237.888 223.005 238.549 224.107 239.033C225.209 239.517 226.38 239.759 227.62 239.759C229.204 239.759 230.604 239.47 231.821 238.895C233.038 238.319 234.037 237.513 234.817 236.476L234.989 236.234L231.098 234.057ZM223.212 228.494C223.533 227.457 224.084 226.634 224.865 226.023C225.645 225.413 226.552 225.107 227.585 225.107C228.687 225.107 229.634 225.413 230.426 226.023C231.218 226.634 231.752 227.457 232.028 228.494H223.212Z" fill="#6F34FD"/>
<path d="M228.824 112.653L228.628 111.972C219.897 81.8048 209.523 65.2246 196.99 61.4715C193.334 60.3765 189.035 60.3268 185.336 61.1454C172.437 63.9978 164.925 77.1158 160.549 84.7544C156.965 91.0142 153.442 97.6485 149.999 104.244C146.557 97.6485 143.034 91.0142 139.449 84.7544C135.074 77.1158 127.563 63.9985 114.664 61.1454C110.963 60.3261 106.665 60.3765 103.009 61.4715C90.4772 65.2246 80.1029 81.8048 71.3723 111.972L71.1772 112.653C67.7743 124.489 58.736 155.929 60.5604 178.134C61.7901 193.29 68.3626 199.265 73.6603 201.609C81.4395 205.049 91.181 202.681 101.092 194.939C106.709 190.55 111.844 185.671 116.599 180.424C121.994 188.157 128.157 194.622 135.07 198.843C140.102 201.904 145.055 203.436 150 203.442C154.944 203.437 159.899 201.904 164.929 198.843C171.843 194.622 178.007 188.157 183.402 180.424C188.156 185.671 193.291 190.55 198.908 194.939C208.82 202.681 218.561 205.049 226.34 201.609C231.637 199.265 238.21 193.29 239.44 178.134C241.263 155.93 232.226 124.489 228.824 112.653ZM92.7242 186.515C86.7386 191.368 81.121 193.324 77.6937 191.753C74.4946 190.283 72.3351 185.282 71.7684 178.031L71.7676 178.024C70.162 157.759 78.8495 126.396 81.7035 116.089L81.8922 115.407C83.7188 108.854 85.6624 102.927 87.6763 97.7097C87.6971 98.1611 87.7215 98.6161 87.7523 99.074C88.812 115.828 95.835 146.531 108.569 170.646C103.731 176.486 98.491 181.838 92.7242 186.515ZM100.967 98.2396C100.41 89.524 101.501 81.9804 103.927 77.1396C106.463 72.0769 109.56 70.6659 114.613 72.9027C120.648 75.5737 125.203 82.8976 129.383 90.4116C133.94 98.611 138.259 107.178 142.83 116.247C143.014 116.613 143.196 116.975 143.381 117.341C135.754 132.384 127.817 147.442 118.409 160.804C108.171 139.568 101.931 113.345 100.967 98.2396ZM160.012 189.191C156.797 191.16 153.942 192.148 151.092 192.152C148.243 192.147 145.388 191.16 142.173 189.191C135.924 185.35 130.25 178.932 125.247 171.109C135.123 158.211 143.356 143.761 151.091 129.124L151.091 129.125L151.093 129.124C158.829 143.761 167.062 158.211 176.938 171.109C171.934 178.932 166.259 185.35 160.012 189.191ZM190.333 138.858C187.88 146.331 184.95 153.835 181.591 160.804C172.183 147.442 164.246 132.384 156.618 117.341C156.71 117.158 156.802 116.976 156.894 116.795C156.986 116.612 157.078 116.431 157.169 116.248C160.883 108.879 164.43 101.842 168.074 95.0639C168.354 94.5427 168.635 94.0229 168.917 93.5045C169.48 92.4678 170.046 91.4368 170.616 90.4124C170.746 90.1777 170.878 89.943 171.009 89.709C171.14 89.475 171.272 89.241 171.404 89.007C171.536 88.7731 171.669 88.5405 171.802 88.308C171.869 88.1921 171.936 88.0754 172.003 87.9595C172.269 87.4959 172.539 87.0351 172.81 86.5772C172.879 86.4628 172.946 86.349 173.014 86.2353C173.628 85.2108 174.252 84.2065 174.891 83.2346C175.246 82.6946 175.606 82.1655 175.97 81.6478C176.189 81.3375 176.409 81.0316 176.632 80.7299C176.706 80.6298 176.781 80.5298 176.855 80.4304C177.005 80.2317 177.155 80.0352 177.306 79.8415C177.381 79.7443 177.457 79.6478 177.533 79.5521C177.762 79.2648 177.991 78.9826 178.224 78.7069C178.379 78.5226 178.534 78.3411 178.691 78.1626C180.101 76.555 181.593 75.1727 183.191 74.1137C183.368 73.9963 183.548 73.8825 183.728 73.7731C183.908 73.6637 184.089 73.5586 184.272 73.4571C184.638 73.2548 185.01 73.0697 185.387 72.9027C185.465 72.8674 185.544 72.8336 185.622 72.8005C185.934 72.668 186.238 72.5492 186.535 72.4448C186.684 72.393 186.831 72.344 186.976 72.2994C187.121 72.2548 187.264 72.213 187.405 72.1749C187.547 72.1367 187.687 72.1029 187.825 72.0719C187.964 72.0409 188.1 72.0143 188.235 71.9905C188.302 71.979 188.369 71.9675 188.436 71.9582C190.634 71.6277 192.395 72.2677 193.906 73.8775C193.998 73.9754 194.088 74.0762 194.178 74.1813C194.313 74.3383 194.446 74.5039 194.577 74.6766C194.839 75.0229 195.094 75.4009 195.343 75.812C195.591 76.2224 195.834 76.6651 196.071 77.1396C197.739 80.4678 198.776 85.0733 199.08 90.4584C199.121 91.1928 199.149 91.9415 199.163 92.7039C199.182 93.7198 199.175 94.7601 199.144 95.8198C199.12 96.6154 199.082 97.4217 199.029 98.2388C198.969 99.1827 198.889 100.17 198.788 101.198C198.737 101.711 198.682 102.235 198.621 102.767C198.56 103.3 198.494 103.842 198.423 104.393C198.247 105.771 198.039 107.204 197.8 108.684C197.752 108.98 197.703 109.279 197.653 109.579C197.302 111.679 196.891 113.869 196.422 116.129C196.355 116.453 196.287 116.777 196.217 117.102C196.079 117.754 195.935 118.41 195.787 119.072C195.713 119.404 195.637 119.736 195.561 120.069C195.025 122.402 194.434 124.793 193.786 127.221C193.694 127.568 193.601 127.915 193.505 128.263C193.126 129.656 192.729 131.06 192.314 132.471C191.899 133.882 191.467 135.301 191.017 136.722C190.795 137.435 190.566 138.146 190.333 138.858ZM228.232 178.024L228.232 178.031C227.664 185.282 225.505 190.283 222.306 191.753C218.879 193.324 213.261 191.368 207.276 186.515C201.508 181.838 196.269 176.486 191.431 170.646C193.52 166.69 195.456 162.556 197.237 158.336C197.406 157.934 197.574 157.531 197.741 157.128C197.991 156.522 198.238 155.916 198.482 155.308C198.645 154.902 198.806 154.496 198.966 154.09C199.365 153.074 199.756 152.054 200.137 151.033C200.29 150.625 200.441 150.216 200.591 149.806C200.891 148.988 201.185 148.169 201.474 147.349C201.618 146.939 201.761 146.53 201.902 146.119C202.326 144.89 202.738 143.661 203.137 142.433C203.27 142.024 203.402 141.615 203.531 141.206C203.597 141.002 203.661 140.798 203.725 140.594C203.983 139.777 204.234 138.962 204.48 138.149C204.542 137.946 204.603 137.742 204.664 137.54C204.785 137.134 204.905 136.728 205.024 136.324C205.499 134.705 205.951 133.095 206.38 131.501C206.702 130.305 207.011 129.118 207.307 127.941C207.406 127.548 207.503 127.157 207.599 126.767C207.839 125.792 208.07 124.826 208.292 123.868C208.381 123.485 208.467 123.103 208.554 122.723C208.64 122.343 208.724 121.964 208.807 121.587C208.89 121.21 208.971 120.835 209.051 120.461C209.132 120.088 209.21 119.715 209.287 119.345C209.365 118.975 209.44 118.607 209.515 118.24C209.59 117.874 209.662 117.509 209.734 117.146C209.877 116.42 210.014 115.702 210.146 114.992C210.277 114.282 210.403 113.581 210.523 112.887C210.553 112.714 210.582 112.542 210.612 112.37C210.699 111.854 210.784 111.342 210.866 110.837C210.893 110.669 210.92 110.501 210.946 110.333C211.025 109.831 211.101 109.335 211.174 108.844C211.199 108.68 211.222 108.517 211.246 108.355C211.34 107.705 211.428 107.067 211.511 106.438C211.614 105.654 211.708 104.885 211.793 104.136C211.827 103.836 211.86 103.539 211.89 103.245C211.937 102.805 211.98 102.371 212.02 101.944C212.047 101.659 212.073 101.378 212.096 101.099C212.156 100.404 212.206 99.7277 212.248 99.0732C212.262 98.8443 212.276 98.6161 212.289 98.3886C212.301 98.1611 212.313 97.9343 212.324 97.709C213.582 100.97 214.813 104.508 216.006 108.303C216.065 108.493 216.125 108.683 216.184 108.874C216.362 109.447 216.54 110.026 216.717 110.61C217.187 112.169 217.651 113.768 218.108 115.407L218.296 116.088C221.15 126.396 229.838 157.759 228.232 178.024Z" fill="#6F34FD"/>
</svg>
